<svg width="64" height="64" viewBox="0 0 64 64" fill="none" xmlns="http://www.w3.org/2000/svg">
  <rect width="64" height="64" rx="15" fill="#f1efe8"/>

  <!-- outer ring -->
  <circle cx="32" cy="9"  r="4.2" fill="#0b1010" opacity="0.88"/>
  <circle cx="50" cy="18" r="3.5" fill="#0b1010" opacity="0.82"/>
  <circle cx="55" cy="36" r="4.0" fill="#0b1010" opacity="0.85"/>
  <circle cx="46" cy="53" r="3.6" fill="#0b1010" opacity="0.80"/>
  <circle cx="18" cy="53" r="3.6" fill="#0b1010" opacity="0.80"/>
  <circle cx="9"  cy="36" r="4.0" fill="#0b1010" opacity="0.85"/>
  <circle cx="14" cy="18" r="3.5" fill="#0b1010" opacity="0.82"/>

  <!-- mid ring -->
  <circle cx="32" cy="19" r="3.0" fill="#0b1010" opacity="0.70"/>
  <circle cx="44" cy="26" r="2.8" fill="#0b1010" opacity="0.68"/>
  <circle cx="44" cy="42" r="2.8" fill="#0b1010" opacity="0.68"/>
  <circle cx="32" cy="48" r="3.0" fill="#0b1010" opacity="0.70"/>
  <circle cx="20" cy="42" r="2.8" fill="#0b1010" opacity="0.68"/>
  <circle cx="20" cy="26" r="2.8" fill="#0b1010" opacity="0.68"/>

  <!-- centre -->
  <circle cx="32" cy="32" r="5.0" fill="#3e5bff"/>

  <!-- satellite dots -->
  <circle cx="32" cy="24" r="1.6" fill="#3e5bff" opacity="0.55"/>
  <circle cx="39" cy="28" r="1.6" fill="#3e5bff" opacity="0.55"/>
  <circle cx="39" cy="36" r="1.6" fill="#3e5bff" opacity="0.55"/>
  <circle cx="32" cy="40" r="1.6" fill="#3e5bff" opacity="0.55"/>
  <circle cx="25" cy="36" r="1.6" fill="#3e5bff" opacity="0.55"/>
  <circle cx="25" cy="28" r="1.6" fill="#3e5bff" opacity="0.55"/>
</svg>